
<svg xmlns="http://www.w3.org/2000/svg" width="5721" height="1193" viewBox="0 0 5721 1193">
  <g transform="translate(0, 952) scale(1, -1)"><g transform="translate(0, 0)"><path d="M296 -10Q209 -10 154.5 29.5Q100 69 75 149.5Q50 230 50 354Q50 478 75.5 558Q101 638 155.5 677.5Q210 717 296 717Q383 717 437.5 677.5Q492 638 517.5 558Q543 478 543 354Q543 231 517.5 150Q492 69 437.5 29.5Q383 -10 296 -10ZM296 42Q398 42 441 119Q484 196 484 354Q484 512 441 588.5Q398 665 296 665Q195 665 152 588.5Q109 512 109 354Q109 196 151.5 119Q194 42 296 42Z"/></g><g transform="translate(593, 0)"><path d="M300 0L240 0L240 667L261 662L60 526L60 589L233 707L300 707Z"/></g><g transform="translate(1081, 0)"><path d="M57 49L299 308Q345 357 374 394.5Q403 432 417.5 464.5Q432 497 432 531Q432 596 390 630.5Q348 665 278 665Q208 665 163 623.5Q118 582 120 510L62 510Q61 575 89 621Q117 667 167 692Q217 717 281 717Q348 717 394.5 694.5Q441 672 466 630.5Q491 589 491 531Q491 493 478 457.5Q465 422 430.5 376.5Q396 331 331 262L103 18L107 52L500 52L500 0L57 0Z"/></g><g transform="translate(1638, 0)"><path d="M299 -10Q230 -10 178.5 11Q127 32 98 75Q69 118 65 183L130 183Q132 136 153.5 104.5Q175 73 212 57.5Q249 42 300 42Q378 42 426 84.5Q474 127 474 207Q474 284 427.5 327Q381 370 298 370L220 370L219 413L460 678L465 655L94 655L94 707L517 707L517 659L286 406L286 421Q360 422 408 402.5Q456 383 483.5 350.5Q511 318 522.5 280.5Q534 243 534 207Q534 137 505 88.5Q476 40 423.5 15Q371 -10 299 -10Z"/></g><g transform="translate(2233, 0)"><path d="M431 668L91 181L78 210L568 210L568 158L43 158L43 208L393 707L469 707L469 0L410 0L410 675Z"/></g><g transform="translate(2843, 0)"><path d="M298 -10Q230 -10 180 11.5Q130 33 102 74Q74 115 70 173L131 173Q135 108 179 75Q223 42 298 42Q387 42 428.5 91.5Q470 141 470 214Q470 263 453.5 302.5Q437 342 400 365.5Q363 389 301 389Q247 390 208.5 369.5Q170 349 147 312L84 312L131 707L495 707L495 655L183 655L150 374L153 374Q173 406 211 423.5Q249 441 296 441Q373 441 424.5 411Q476 381 502.5 330.5Q529 280 529 216Q529 150 501 99Q473 48 421.5 19Q370 -10 298 -10Z"/></g><g transform="translate(3431, 0)"><path d="M69 222Q70 261 78.5 298Q87 335 109.5 377Q132 419 172 473L347 707L418 707L181 393L173 402Q194 415 211 423.5Q228 432 248 436.5Q268 441 297 441Q370 441 421 414.5Q472 388 498.5 338Q525 288 525 217Q525 149 499 98Q473 47 422 18.5Q371 -10 297 -10Q185 -10 126.5 53.5Q68 117 69 222ZM128 217Q128 137 167.5 89.5Q207 42 297 42Q386 42 426 89.5Q466 137 466 217Q466 297 426 343Q386 389 297 389Q217 389 172.5 343Q128 297 128 217Z"/></g><g transform="translate(4024, 0)"><path d="M441 683L456 655L41 655L41 707L491 707L491 660L162 0L97 0Z"/></g><g transform="translate(4545, 0)"><path d="M294 -10Q167 -10 108.5 41Q50 92 50 183Q51 232 68.5 271Q86 310 118.5 335Q151 360 193 367L193 371Q138 385 107.5 428.5Q77 472 77 534Q77 587 100.5 628.5Q124 670 172.5 693.5Q221 717 294 717Q367 717 415 693.5Q463 670 486.5 628.5Q510 587 509 534Q508 473 478 429Q448 385 393 371L393 367Q435 360 468 335Q501 310 519.5 271Q538 232 538 183Q538 122 512 79Q486 36 432 13Q378 -10 294 -10ZM294 42Q390 42 435 82Q480 122 480 191Q480 259 432 299Q384 339 294 339Q203 339 155.5 299Q108 259 108 191Q108 122 153 82Q198 42 294 42ZM294 391Q372 391 412.5 427.5Q453 464 453 527Q453 591 413.5 628Q374 665 294 665Q213 665 174 628Q135 591 135 527Q135 464 175 427.5Q215 391 294 391Z"/></g><g transform="translate(5133, 0)"><path d="M523 486Q523 447 512.5 411Q502 375 480 333Q458 291 421 235L267 0L197 0L423 334L430 315Q404 298 383.5 287Q363 276 343 271Q323 266 296 266Q223 266 172 292.5Q121 319 94.5 369.5Q68 420 68 491Q68 559 94 610Q120 661 171 689Q222 717 296 717Q409 717 466.5 653.5Q524 590 523 486ZM466 491Q466 571 426 617Q386 663 296 663Q207 663 167 617Q127 571 127 491Q127 411 167.5 366Q208 321 296 321Q376 321 421 366Q466 411 466 491Z"/></g></g>
</svg>