
<svg xmlns="http://www.w3.org/2000/svg" width="19690" height="1193" viewBox="0 0 19690 1193">
  <g transform="translate(0, 952) scale(1, -1)"><g transform="translate(0, 0)"><path d="M30 707L552 707L552 655L321 655L321 0L261 0L261 655L30 655Z"/></g><g transform="translate(553, 0)"><path d="M140 0L83 0L83 717L140 717L140 417Q163 460 202 485.5Q241 511 308 511Q393 511 439.5 463.5Q486 416 486 313L486 0L429 0L429 310Q429 395 394 428Q359 461 294 461Q250 461 215 445Q180 429 160 392.5Q140 356 140 294Z"/></g><g transform="translate(1118, 0)"><path d="M71 276L436 276Q436 359 397.5 410Q359 461 278 461Q190 461 149 407Q108 353 108 251Q108 149 148 94.5Q188 40 285 40Q348 40 378.5 62Q409 84 420 120L483 120Q471 82 449 52.5Q427 23 388 6.5Q349 -10 285 -10Q169 -10 110 57.5Q51 125 51 251Q51 377 109.5 444Q168 511 278 511Q337 511 385.5 486Q434 461 463.5 404Q493 347 493 251L493 229L70 229Z"/></g><g transform="translate(1661, 0)"><path d=""/></g><g transform="translate(1907, 0)"><path d="M441 501L498 501L498 -202L441 -202ZM263 -10Q161 -10 106 57Q51 124 51 249Q51 333 75.5 391.5Q100 450 147.5 480.5Q195 511 263 511Q329 511 375 480.5Q421 450 444.5 391.5Q468 333 468 249Q468 165 444.5 107.5Q421 50 375 20Q329 -10 263 -10ZM282 41Q359 41 400 94.5Q441 148 441 249Q441 350 400 405Q359 460 282 460Q198 460 153 405Q108 350 108 249Q108 149 153 95Q198 41 282 41Z"/></g><g transform="translate(2493, 0)"><path d="M427 500L484 500L484 -1L427 -1L427 84Q405 41 366 15.5Q327 -10 259 -10Q174 -10 127.5 37.5Q81 85 81 188L81 501L138 501L137 191Q137 106 173 73Q209 40 273 40Q317 40 352 56Q387 72 407 109Q427 146 427 207Z"/></g><g transform="translate(3057, 0)"><path d="M141 501L141 0L84 0L84 501ZM78 717L147 717L147 636L78 636Z"/></g><g transform="translate(3282, 0)"><path d="M285 -10Q167 -10 109 57.5Q51 125 51 251Q51 377 111 444Q171 511 283 511Q339 511 380.5 493Q422 475 448 442Q474 409 483 363L423 363Q413 407 382.5 433.5Q352 460 284 460Q199 460 153.5 406.5Q108 353 108 251Q108 149 153.5 95Q199 41 284 41Q349 41 381 62.5Q413 84 423 132L484 132Q476 90 451.5 58Q427 26 385.5 8Q344 -10 285 -10Z"/></g><g transform="translate(3814, 0)"><path d="M246 312L502 0L430 0L207 277ZM140 0L83 0L83 717L140 717ZM106 234L382 501L458 501L105 166Z"/></g><g transform="translate(4334, 0)"><path d=""/></g><g transform="translate(4580, 0)"><path d="M140 717L140 0L83 0L83 717ZM318 -10Q252 -10 206 20Q160 50 136.5 108Q113 166 113 249Q113 333 136.5 391.5Q160 450 206 480.5Q252 511 318 511Q386 511 433.5 480.5Q481 450 505.5 391.5Q530 333 530 249Q530 124 475 57Q420 -10 318 -10ZM299 41Q383 41 428 95Q473 149 473 249Q473 350 428 405Q383 460 299 460Q223 460 181.5 405Q140 350 140 249Q140 149 181.5 95Q223 41 299 41Z"/></g><g transform="translate(5161, 0)"><path d="M140 0L83 0L83 501L140 501L140 409Q155 450 188.5 475.5Q222 501 271 501L319 501L319 451L270 451Q208 451 174 411.5Q140 372 140 298Z"/></g><g transform="translate(5482, 0)"><path d="M283 -10Q171 -10 111 57.5Q51 125 51 251Q51 377 111 444Q171 511 283 511Q358 511 409.5 481Q461 451 488 393Q515 335 515 251Q515 125 455 57.5Q395 -10 283 -10ZM283 41Q367 41 412.5 95Q458 149 458 251Q458 353 412.5 406.5Q367 460 283 460Q199 460 153.5 406.5Q108 353 108 251Q108 149 153.5 95Q199 41 283 41Z"/></g><g transform="translate(6029, 0)"><path d="M22 501L82 501L219 54L225 54L350 501L431 501L557 56L563 56L700 501L759 501L596 0L518 0L393 444L385 444L259 0L181 0Z"/></g><g transform="translate(6799, 0)"><path d="M140 0L83 0L83 501L140 501L140 417Q163 460 202 485.5Q241 511 308 511Q393 511 439.5 463.5Q486 416 486 313L486 0L429 0L429 310Q429 395 394 428Q359 461 294 461Q250 461 215 445Q180 429 160 392.5Q140 356 140 294Z"/></g><g transform="translate(7366, 0)"><path d=""/></g><g transform="translate(7612, 0)"><path d="M173 0L116 0L116 614Q116 650 127.5 673Q139 696 165.5 706.5Q192 717 236 717L298 717L298 665L173 665ZM28 451L28 501L294 501L294 451Z"/></g><g transform="translate(7898, 0)"><path d="M283 -10Q171 -10 111 57.5Q51 125 51 251Q51 377 111 444Q171 511 283 511Q358 511 409.5 481Q461 451 488 393Q515 335 515 251Q515 125 455 57.5Q395 -10 283 -10ZM283 41Q367 41 412.5 95Q458 149 458 251Q458 353 412.5 406.5Q367 460 283 460Q199 460 153.5 406.5Q108 353 108 251Q108 149 153.5 95Q199 41 283 41Z"/></g><g transform="translate(8439, 0)"><path d="M452 501L274 240L239 277L390 501ZM34 0L212 248L249 214L98 0ZM106 501L248 282L278 250L458 0L387 0L241 212L210 242L36 501Z"/></g><g transform="translate(8932, 0)"><path d=""/></g><g transform="translate(9178, 0)"><path d="M154 -102Q154 -151 130.5 -176.5Q107 -202 48 -202L0 -202L0 -152L97 -152L97 501L154 501ZM91 717L160 717L160 636L91 636Z"/></g><g transform="translate(9416, 0)"><path d="M427 500L484 500L484 -1L427 -1L427 84Q405 41 366 15.5Q327 -10 259 -10Q174 -10 127.5 37.5Q81 85 81 188L81 501L138 501L137 191Q137 106 173 73Q209 40 273 40Q317 40 352 56Q387 72 407 109Q427 146 427 207Z"/></g><g transform="translate(9982, 0)"><path d="M83 501L138 501L138 421Q162 463 202.5 487Q243 511 301 511Q354 511 394.5 485Q435 459 450 401L455 401Q483 460 522.5 485.5Q562 511 625 511Q664 511 695 498.5Q726 486 747 461.5Q768 437 779 399.5Q790 362 790 312L790 0L733 0L734 309Q734 396 702 428Q670 460 604 460Q541 460 503 421Q465 382 465 293L465 0L408 0L410 309Q411 368 395.5 401Q380 434 351 447Q322 460 281 460Q215 460 177.5 422Q140 384 140 295L140 0L83 0Z"/></g><g transform="translate(10853, 0)"><path d="M145 501L145 -202L88 -202L88 501ZM323 -10Q257 -10 211 20Q165 50 141.5 107.5Q118 165 118 249Q118 333 141.5 391.5Q165 450 211 480.5Q257 511 323 511Q391 511 438.5 480.5Q486 450 510.5 391.5Q535 333 535 249Q535 124 480 57Q425 -10 323 -10ZM304 41Q388 41 433 95Q478 149 478 249Q478 350 433 405Q388 460 304 460Q228 460 186.5 405Q145 350 145 249Q145 148 186.5 94.5Q228 41 304 41Z"/></g><g transform="translate(11439, 0)"><path d="M373 379Q366 420 337.5 440.5Q309 461 250 461Q184 461 153 437.5Q122 414 122 379Q122 337 148 321Q174 305 226 292L311 271Q378 255 409 222Q440 189 440 133Q440 75 392 32.5Q344 -10 242 -10Q154 -10 108 23.5Q62 57 50 132L111 132Q118 88 144 64Q170 40 240 40Q314 40 348.5 65.5Q383 91 383 128Q383 167 359.5 188Q336 209 279 224L194 246Q129 263 97 292.5Q65 322 65 373Q65 437 111 474Q157 511 250 511Q333 511 376 479Q419 447 429 379Z"/></g><g transform="translate(11929, 0)"><path d=""/></g><g transform="translate(12175, 0)"><path d="M283 -10Q171 -10 111 57.5Q51 125 51 251Q51 377 111 444Q171 511 283 511Q358 511 409.5 481Q461 451 488 393Q515 335 515 251Q515 125 455 57.5Q395 -10 283 -10ZM283 41Q367 41 412.5 95Q458 149 458 251Q458 353 412.5 406.5Q367 460 283 460Q199 460 153.5 406.5Q108 353 108 251Q108 149 153.5 95Q199 41 283 41Z"/></g><g transform="translate(12715, 0)"><path d="M278 0L213 0L22 501L83 501L242 60L249 60L410 501L469 501Z"/></g><g transform="translate(13179, 0)"><path d="M71 276L436 276Q436 359 397.5 410Q359 461 278 461Q190 461 149 407Q108 353 108 251Q108 149 148 94.5Q188 40 285 40Q348 40 378.5 62Q409 84 420 120L483 120Q471 82 449 52.5Q427 23 388 6.5Q349 -10 285 -10Q169 -10 110 57.5Q51 125 51 251Q51 377 109.5 444Q168 511 278 511Q337 511 385.5 486Q434 461 463.5 404Q493 347 493 251L493 229L70 229Z"/></g><g transform="translate(13722, 0)"><path d="M140 0L83 0L83 501L140 501L140 409Q155 450 188.5 475.5Q222 501 271 501L319 501L319 451L270 451Q208 451 174 411.5Q140 372 140 298Z"/></g><g transform="translate(14073, 0)"><path d=""/></g><g transform="translate(14319, 0)"><path d="M293 451L169 451L169 50L288 50L288 0L224 0Q163 0 137.5 20Q112 40 112 101L112 451L23 451L23 501L112 501L112 651L169 651L169 501L293 501Z"/></g><g transform="translate(14651, 0)"><path d="M140 0L83 0L83 717L140 717L140 417Q163 460 202 485.5Q241 511 308 511Q393 511 439.5 463.5Q486 416 486 313L486 0L429 0L429 310Q429 395 394 428Q359 461 294 461Q250 461 215 445Q180 429 160 392.5Q140 356 140 294Z"/></g><g transform="translate(15216, 0)"><path d="M71 276L436 276Q436 359 397.5 410Q359 461 278 461Q190 461 149 407Q108 353 108 251Q108 149 148 94.5Q188 40 285 40Q348 40 378.5 62Q409 84 420 120L483 120Q471 82 449 52.5Q427 23 388 6.5Q349 -10 285 -10Q169 -10 110 57.5Q51 125 51 251Q51 377 109.5 444Q168 511 278 511Q337 511 385.5 486Q434 461 463.5 404Q493 347 493 251L493 229L70 229Z"/></g><g transform="translate(15759, 0)"><path d=""/></g><g transform="translate(16005, 0)"><path d="M140 0L83 0L83 717L140 717Z"/></g><g transform="translate(16228, 0)"><path d="M512 0L465 0Q434 0 416 19.5Q398 39 398 96L405 96Q380 41 330 15.5Q280 -10 218 -10Q164 -10 126.5 7.5Q89 25 69.5 59Q50 93 50 141Q50 175 62 202Q74 229 97.5 247.5Q121 266 155.5 275.5Q190 285 234 285L398 285L398 340Q398 400 365 430.5Q332 461 266 461Q206 461 172.5 435.5Q139 410 133 369L74 369Q79 413 102 445Q125 477 167 494Q209 511 269 511Q315 511 350 499.5Q385 488 408 465Q431 442 443 409Q455 376 455 332L455 52L512 52ZM110 142Q109 94 139.5 67.5Q170 41 228 41Q308 41 353 78.5Q398 116 398 184L398 235L235 235Q175 235 143.5 210Q112 185 110 142Z"/></g><g transform="translate(16766, 0)"><path d="M32 43L377 477L402 451L42 451L42 501L427 501L427 459L91 36L82 50L437 50L437 0L32 0Z"/></g><g transform="translate(17223, 0)"><path d="M410 501L470 501L299 -84Q280 -151 242.5 -176.5Q205 -202 152 -202L76 -202L76 -152L147 -152Q191 -152 213 -133.5Q235 -115 248 -68ZM84 501L201 133Q213 97 220.5 79Q228 61 238 55.5Q248 50 265 50L305 50L305 0L260 0Q229 0 210 8.5Q191 17 176.5 42.5Q162 68 146 118L23 501Z"/></g><g transform="translate(17716, 0)"><path d=""/></g><g transform="translate(17962, 0)"><path d="M441 717L498 717L498 0L441 0ZM263 -10Q161 -10 106 57Q51 124 51 249Q51 333 75.5 391.5Q100 450 147.5 480.5Q195 511 263 511Q329 511 375 480.5Q421 450 444.5 391.5Q468 333 468 249Q468 166 444.5 108Q421 50 375 20Q329 -10 263 -10ZM282 41Q359 41 400 95Q441 149 441 249Q441 350 400 405Q359 460 282 460Q198 460 153 405Q108 350 108 249Q108 149 153 95Q198 41 282 41Z"/></g><g transform="translate(18543, 0)"><path d="M283 -10Q171 -10 111 57.5Q51 125 51 251Q51 377 111 444Q171 511 283 511Q358 511 409.5 481Q461 451 488 393Q515 335 515 251Q515 125 455 57.5Q395 -10 283 -10ZM283 41Q367 41 412.5 95Q458 149 458 251Q458 353 412.5 406.5Q367 460 283 460Q199 460 153.5 406.5Q108 353 108 251Q108 149 153.5 95Q199 41 283 41Z"/></g><g transform="translate(19109, 0)"><path d="M263 6Q161 6 106 72Q51 138 51 257Q51 337 75.5 394Q100 451 147.5 481Q195 511 263 511Q329 511 375 481Q421 451 444.5 394Q468 337 468 257Q468 178 444.5 121.5Q421 65 375 35.5Q329 6 263 6ZM282 57Q359 57 400 110Q441 163 441 257Q441 352 400 406Q359 460 282 460Q198 460 153 406Q108 352 108 257Q108 163 153 110Q198 57 282 57ZM441 501L498 501L498 0L441 0L441 369L441 375ZM498 6Q498 -112 447.5 -159.5Q397 -207 298 -207Q232 -207 188 -190.5Q144 -174 120 -142Q96 -110 90 -64L151 -64Q154 -93 167.5 -114Q181 -135 212 -146Q243 -157 298 -157Q356 -157 386.5 -139Q417 -121 429 -84.5Q441 -48 441 6Z"/></g></g>
</svg>