
<svg xmlns="http://www.w3.org/2000/svg" width="6000" height="1300" viewBox="0 0 6000 1300">
  <g transform="translate(0, 1000) scale(1, -1)"><g transform="translate(0, 0)"><path d="M100 800L400 800L400 700L100 700ZM200 500L300 500L300 400L200 400ZM0 700L100 700L100 400L200 400L200 300L100 300L100 100L0 100ZM400 500L300 500L300 600L400 600L400 700L500 700L500 100L400 100ZM400 0L100 0L100 100L400 100Z"/></g><g transform="translate(600, 0)"><path d="M100 700L200 700L200 800L300 800L300 0L200 0L200 600L100 600Z"/></g><g transform="translate(1200, 0)"><path d="M100 800L400 800L400 700L100 700ZM0 700L100 700L100 600L0 600ZM400 700L500 700L500 500L400 500ZM200 500L400 500L400 400L200 400ZM100 400L200 400L200 300L100 300ZM0 300L100 300L100 100L500 100L500 0L0 0Z"/></g><g transform="translate(1800, 0)"><path d="M500 800L500 600L400 600L400 700L0 700L0 800ZM300 600L400 600L400 500L300 500ZM200 500L300 500L300 400L200 400ZM300 400L400 400L400 300L300 300ZM0 200L100 200L100 100L0 100ZM400 300L500 300L500 100L400 100ZM400 0L100 0L100 100L400 100Z"/></g><g transform="translate(2400, 0)"><path d="M100 600L200 600L200 400L100 400ZM0 400L100 400L100 300L300 300L300 600L200 600L200 700L300 700L300 800L400 800L400 300L500 300L500 200L400 200L400 0L300 0L300 200L0 200Z"/></g><g transform="translate(3000, 0)"><path d="M0 800L500 800L500 700L100 700L100 500L400 500L400 400L0 400ZM0 200L100 200L100 100L0 100ZM400 400L500 400L500 100L400 100ZM400 0L100 0L100 100L400 100Z"/></g><g transform="translate(3600, 0)"><path d="M100 800L400 800L400 700L100 700ZM400 700L500 700L500 600L400 600ZM0 700L100 700L100 500L400 500L400 400L100 400L100 100L0 100ZM400 400L500 400L500 100L400 100ZM400 0L100 0L100 100L400 100Z"/></g><g transform="translate(4200, 0)"><path d="M500 800L500 600L400 600L400 700L0 700L0 800ZM300 600L400 600L400 300L300 300ZM200 300L300 300L300 0L200 0Z"/></g><g transform="translate(4800, 0)"><path d="M100 800L400 800L400 700L100 700ZM0 700L100 700L100 500L0 500ZM400 700L500 700L500 500L400 500ZM400 500L400 400L100 400L100 500ZM0 400L100 400L100 100L0 100ZM400 400L500 400L500 100L400 100ZM400 0L100 0L100 100L400 100Z"/></g><g transform="translate(5400, 0)"><path d="M100 800L400 800L400 700L100 700ZM0 700L100 700L100 400L0 400ZM0 200L100 200L100 100L0 100ZM500 100L400 100L400 300L100 300L100 400L400 400L400 700L500 700ZM400 0L100 0L100 100L400 100Z"/></g></g>
</svg>