
<svg xmlns="http://www.w3.org/2000/svg" width="17400" height="1300" viewBox="0 0 17400 1300">
  <g transform="translate(0, 1000) scale(1, -1)"><g transform="translate(0, 0)"><path d="M0 200L100 200L100 100L0 100ZM1000 200L1100 200L1100 100L1000 100ZM800 300L800 400L300 400L300 300ZM300 0L300 -100L800 -100L800 0ZM800 100L800 200L300 200L300 100ZM500 700L500 800L100 800L100 900L500 900L500 1000L600 1000L600 900L1000 900L1000 800L600 800L600 700L900 700L900 600L500 600L500 500L1100 500L1100 400L900 400L900 300L1000 300L1000 200L900 200L900 -200L200 -200L200 200L100 200L100 300L200 300L200 400L0 400L0 500L400 500L400 600L200 600L200 700Z"/></g><g transform="translate(1200, 0)"><path d="M100 1000L200 1000L200 900L100 900ZM200 900L300 900L300 800L200 800ZM0 700L100 700L100 600L0 600ZM100 600L200 600L200 500L100 500ZM200 500L300 500L300 400L200 400ZM200 300L300 300L300 200L200 200ZM100 100L0 100L0 200L200 200L200 -200L100 -200ZM1100 -200L300 -200L300 -100L600 -100L600 800L400 800L400 900L1000 900L1000 800L700 800L700 -100L1100 -100Z"/></g><g transform="translate(2400, 0)"><path d="M0 1000L100 1000L100 900L0 900ZM100 900L200 900L200 800L100 800ZM0 600L100 600L100 500L0 500ZM100 500L200 500L200 400L100 400ZM100 200L200 200L200 0L100 0ZM900 600L1000 600L1000 800L900 800ZM1000 500L900 500L900 300L1000 300ZM800 900L1100 900L1100 -100L1000 -100L1000 200L900 200L900 0L800 0ZM0 0L100 0L100 -200L0 -200ZM600 400L400 400L400 300L600 300ZM400 500L600 500L600 600L400 600ZM300 700L500 700L500 800L300 800L300 900L500 900L500 1000L600 1000L600 900L700 900L700 800L600 800L600 700L700 700L700 200L600 200L600 100L700 100L700 0L600 0L600 -200L500 -200L500 0L300 0L300 100L500 100L500 200L300 200ZM700 0L800 0L800 -200L700 -200ZM900 -100L1000 -100L1000 -200L900 -200Z"/></g><g transform="translate(3600, 0)"><path d="M1000 800L1100 800L1100 700L1000 700ZM900 700L1000 700L1000 600L900 600ZM800 600L900 600L900 500L800 500ZM400 700L400 400L300 400L300 600L0 600L0 700ZM700 500L800 500L800 300L700 300ZM200 400L300 400L300 200L200 200ZM800 300L900 300L900 200L800 200ZM100 200L200 200L200 100L100 100ZM900 200L1000 200L1000 100L900 100ZM0 100L100 100L100 0L0 0ZM1000 100L1100 100L1100 0L1000 0ZM300 0L400 0L400 -100L300 -100ZM500 1000L600 1000L600 600L700 600L700 500L600 500L600 -100L500 -100ZM400 -100L500 -100L500 -200L400 -200Z"/></g><g transform="translate(4800, 0)"><path d="M100 1000L200 1000L200 900L100 900ZM200 900L300 900L300 700L200 700ZM600 1000L700 1000L700 800L1100 800L1100 700L700 700L700 600L600 600L600 700L400 700L400 800L600 800ZM300 0L200 0L200 500L0 500L0 600L300 600ZM500 600L600 600L600 500L700 500L700 600L800 600L800 500L1000 500L1000 400L800 400L800 300L1100 300L1100 200L800 200L800 0L700 0L700 200L400 200L400 300L700 300L700 400L500 400ZM100 0L200 0L200 -100L100 -100ZM300 0L400 0L400 -100L300 -100ZM0 -100L100 -100L100 -200L0 -200ZM1100 -200L400 -200L400 -100L1100 -100Z"/></g><g transform="translate(6000, 0)"><path d="M100 1000L200 1000L200 900L100 900ZM200 900L300 900L300 800L200 800ZM400 1000L500 1000L500 900L1100 900L1100 800L400 800ZM300 800L400 800L400 700L300 700ZM0 700L100 700L100 600L0 600ZM100 600L200 600L200 500L100 500ZM200 500L300 500L300 400L200 400ZM200 300L300 300L300 200L200 200ZM900 100L900 300L700 300L700 200L600 200L600 300L500 300L500 100L700 100L700 200L800 200L800 100ZM900 600L700 600L700 500L600 500L600 600L500 600L500 400L700 400L700 500L800 500L800 400L900 400ZM400 700L1000 700L1000 400L1100 400L1100 300L1000 300L1000 100L1100 100L1100 0L1000 0L1000 -100L900 -100L900 0L400 0L400 300L300 300L300 400L400 400ZM100 100L0 100L0 200L200 200L200 -200L100 -200ZM700 -100L900 -100L900 -200L700 -200Z"/></g><g transform="translate(7200, 0)"><path d="M200 700L300 700L300 600L200 600ZM800 700L900 700L900 600L800 600ZM300 600L400 600L400 500L300 500ZM700 600L800 600L800 500L700 500ZM1100 300L600 300L600 -200L500 -200L500 300L0 300L0 400L500 400L500 800L100 800L100 900L1000 900L1000 800L600 800L600 400L1100 400Z"/></g><g transform="translate(8400, 0)"><path d=""/></g><g transform="translate(9000, 0)"><path d="M100 1000L200 1000L200 900L100 900ZM200 900L300 900L300 800L200 800ZM400 1000L500 1000L500 900L1100 900L1100 800L400 800ZM300 800L400 800L400 700L300 700ZM0 700L100 700L100 600L0 600ZM100 600L200 600L200 500L100 500ZM200 500L300 500L300 400L200 400ZM200 300L300 300L300 200L200 200ZM900 100L900 300L700 300L700 200L600 200L600 300L500 300L500 100L700 100L700 200L800 200L800 100ZM900 600L700 600L700 500L600 500L600 600L500 600L500 400L700 400L700 500L800 500L800 400L900 400ZM400 700L1000 700L1000 400L1100 400L1100 300L1000 300L1000 100L1100 100L1100 0L1000 0L1000 -100L900 -100L900 0L400 0L400 300L300 300L300 400L400 400ZM100 100L0 100L0 200L200 200L200 -200L100 -200ZM700 -100L900 -100L900 -200L700 -200Z"/></g><g transform="translate(10200, 0)"><path d="M1100 -200L0 -200L0 -100L400 -100L400 1000L500 1000L500 500L1000 500L1000 400L500 400L500 -100L1100 -100Z"/></g><g transform="translate(11400, 0)"><path d="M400 600L400 800L100 800L100 600ZM100 200L400 200L400 500L100 500ZM0 900L500 900L500 100L0 100ZM500 0L600 0L600 -100L500 -100ZM800 0L900 0L900 -100L800 -100ZM700 700L1000 700L1000 900L700 900ZM1100 -100L1000 -100L1000 300L700 300L700 0L600 0L600 1000L1100 1000ZM1000 600L700 600L700 400L1000 400ZM400 -100L500 -100L500 -200L400 -200ZM900 -100L1000 -100L1000 -200L900 -200Z"/></g><g transform="translate(12600, 0)"><path d="M100 100L200 100L200 -100L100 -100ZM700 0L800 0L800 -100L700 -100ZM300 500L300 300L900 300L900 500ZM300 800L300 600L900 600L900 800ZM1000 900L1000 -100L900 -100L900 200L300 200L300 100L200 100L200 900ZM0 -100L100 -100L100 -200L0 -200ZM800 -100L900 -100L900 -200L800 -200Z"/></g><g transform="translate(13800, 0)"><path d="M400 300L700 300L700 600L400 600ZM300 600L100 600L100 700L300 700L300 1000L400 1000L400 700L700 700L700 1000L800 1000L800 700L1000 700L1000 600L800 600L800 300L1100 300L1100 200L0 200L0 300L300 300ZM300 100L400 100L400 0L300 0ZM700 100L800 100L800 0L700 0ZM200 0L300 0L300 -100L200 -100ZM800 0L900 0L900 -100L800 -100ZM100 -100L200 -100L200 -200L100 -200ZM900 -100L1000 -100L1000 -200L900 -200Z"/></g><g transform="translate(15000, 0)"><path d="M0 1000L100 1000L100 900L0 900ZM100 900L200 900L200 800L100 800ZM0 600L100 600L100 500L0 500ZM100 500L200 500L200 400L100 400ZM100 200L200 200L200 0L100 0ZM900 600L1000 600L1000 800L900 800ZM1000 500L900 500L900 300L1000 300ZM800 900L1100 900L1100 -100L1000 -100L1000 200L900 200L900 0L800 0ZM0 0L100 0L100 -200L0 -200ZM600 400L400 400L400 300L600 300ZM400 500L600 500L600 600L400 600ZM300 700L500 700L500 800L300 800L300 900L500 900L500 1000L600 1000L600 900L700 900L700 800L600 800L600 700L700 700L700 200L600 200L600 100L700 100L700 0L600 0L600 -200L500 -200L500 0L300 0L300 100L500 100L500 200L300 200ZM700 0L800 0L800 -200L700 -200ZM900 -100L1000 -100L1000 -200L900 -200Z"/></g><g transform="translate(16200, 0)"><path d="M100 600L200 600L200 500L100 500ZM0 500L100 500L100 400L0 400ZM500 700L500 1000L600 1000L600 700L1000 700L1000 600L600 600L600 300L900 300L900 200L600 200L600 -100L1100 -100L1100 -200L0 -200L0 -100L500 -100L500 200L200 200L200 300L500 300L500 600L200 600L200 900L300 900L300 700Z"/></g></g>
</svg>