
<svg xmlns="http://www.w3.org/2000/svg" width="16800" height="1300" viewBox="0 0 16800 1300">
  <g transform="translate(0, 1000) scale(1, -1)"><g transform="translate(0, 0)"><path d="M0 200L100 200L100 100L0 100ZM1000 200L1100 200L1100 100L1000 100ZM800 300L800 400L300 400L300 300ZM300 0L300 -100L800 -100L800 0ZM800 100L800 200L300 200L300 100ZM400 500L700 500L700 600L400 600ZM300 600L200 600L200 700L400 700L400 800L100 800L100 900L500 900L500 1000L600 1000L600 900L1000 900L1000 800L500 800L500 700L900 700L900 600L800 600L800 500L1100 500L1100 400L900 400L900 300L1000 300L1000 200L900 200L900 -200L200 -200L200 200L100 200L100 300L200 300L200 400L0 400L0 500L300 500Z"/></g><g transform="translate(1200, 0)"><path d="M200 700L300 700L300 600L200 600ZM800 700L900 700L900 600L800 600ZM900 600L1000 600L1000 500L900 500ZM100 600L200 600L200 400L100 400ZM800 800L800 700L600 700L600 300L500 300L500 700L300 700L300 800ZM1000 500L1100 500L1100 200L1000 200ZM0 400L100 400L100 100L0 100ZM100 100L200 100L200 0L100 0ZM400 300L500 300L500 0L400 0ZM900 200L1000 200L1000 0L900 0ZM400 -100L200 -100L200 0L400 0ZM800 0L900 0L900 -100L800 -100ZM800 -200L600 -200L600 -100L800 -100Z"/></g><g transform="translate(2400, 0)"><path d="M500 500L600 500L600 400L500 400ZM400 400L500 400L500 300L400 300ZM700 400L800 400L800 300L700 300ZM500 800L500 1000L600 1000L600 800L1100 800L1100 700L700 700L700 600L1000 600L1000 300L900 300L900 500L600 500L600 700L400 700L400 500L300 500L300 700L0 700L0 800ZM0 300L100 300L100 200L0 200ZM500 300L600 300L600 200L500 200ZM600 200L700 200L700 100L600 100ZM800 300L900 300L900 100L800 100ZM700 100L800 100L800 0L700 0ZM600 0L700 0L700 -100L600 -100ZM800 0L900 0L900 -100L800 -100ZM200 300L100 300L100 400L200 400L200 500L300 500L300 -200L200 -200ZM400 -100L600 -100L600 -200L400 -200ZM900 -100L1100 -100L1100 -200L900 -200Z"/></g><g transform="translate(3600, 0)"><path d="M200 700L300 700L300 600L200 600ZM800 700L900 700L900 600L800 600ZM900 600L1000 600L1000 500L900 500ZM100 600L200 600L200 400L100 400ZM800 800L800 700L600 700L600 300L500 300L500 700L300 700L300 800ZM1000 500L1100 500L1100 200L1000 200ZM0 400L100 400L100 100L0 100ZM100 100L200 100L200 0L100 0ZM400 300L500 300L500 0L400 0ZM900 200L1000 200L1000 0L900 0ZM400 -100L200 -100L200 0L400 0ZM800 0L900 0L900 -100L800 -100ZM800 -200L600 -200L600 -100L800 -100Z"/></g><g transform="translate(4800, 0)"><path d=""/></g><g transform="translate(5400, 0)"><path d="M200 200L300 200L300 100L200 100ZM500 600L500 500L600 500L600 600ZM400 500L400 600L200 600L200 500ZM700 600L700 500L900 500L900 600ZM300 400L100 400L100 300L0 300L0 500L100 500L100 700L300 700L300 800L0 800L0 900L300 900L300 1000L400 1000L400 900L700 900L700 1000L800 1000L800 900L1100 900L1100 800L800 800L800 700L1000 700L1000 500L1100 500L1100 300L1000 300L1000 400L400 400L400 300L1000 300L1000 200L900 200L900 100L800 100L800 200L300 200ZM700 700L700 800L400 800L400 700ZM0 100L200 100L200 0L0 0ZM500 0L300 0L300 100L500 100ZM700 100L800 100L800 0L700 0ZM500 0L700 0L700 -100L500 -100ZM500 -100L500 -200L0 -200L0 -100Z"/></g><g transform="translate(6600, 0)"><path d="M200 700L300 700L300 600L200 600ZM800 700L900 700L900 600L800 600ZM900 600L1000 600L1000 500L900 500ZM100 600L200 600L200 400L100 400ZM800 800L800 700L600 700L600 300L500 300L500 700L300 700L300 800ZM1000 500L1100 500L1100 200L1000 200ZM0 400L100 400L100 100L0 100ZM100 100L200 100L200 0L100 0ZM400 300L500 300L500 0L400 0ZM900 200L1000 200L1000 0L900 0ZM400 -100L200 -100L200 0L400 0ZM800 0L900 0L900 -100L800 -100ZM800 -200L600 -200L600 -100L800 -100Z"/></g><g transform="translate(7800, 0)"><path d="M900 1000L1000 1000L1000 900L900 900ZM1000 900L1100 900L1100 800L1000 800ZM900 800L1000 800L1000 700L900 700ZM800 600L700 600L700 700L200 700L200 800L800 800ZM1000 700L1100 700L1100 600L1000 600ZM600 600L700 600L700 500L600 500ZM200 400L300 400L300 300L200 300ZM100 300L200 300L200 0L100 0ZM200 0L300 0L300 -100L200 -100ZM1000 -100L1000 -200L300 -200L300 -100Z"/></g><g transform="translate(9000, 0)"><path d="M200 900L300 900L300 700L200 700ZM300 700L400 700L400 500L300 500ZM600 600L900 600L900 500L600 500ZM600 400L400 400L400 500L600 500ZM300 400L400 400L400 300L300 300ZM200 300L300 300L300 200L200 200ZM100 200L200 200L200 0L100 0ZM200 0L300 0L300 -100L200 -100ZM800 0L1000 0L1000 -100L800 -100ZM800 -100L800 -200L300 -200L300 -100Z"/></g><g transform="translate(10200, 0)"><path d="M900 200L1000 200L1000 100L900 100ZM800 100L900 100L900 0L800 0ZM200 900L300 900L300 -100L200 -100ZM600 0L800 0L800 -100L600 -100ZM600 -100L600 -200L300 -200L300 -100Z"/></g><g transform="translate(11400, 0)"><path d=""/></g><g transform="translate(12000, 0)"><path d="M800 700L800 600L500 600L500 700ZM300 500L0 500L0 600L300 600L300 900L400 900L400 600L500 600L500 500L400 500L400 300L300 300ZM900 400L900 300L600 300L600 400ZM900 300L1000 300L1000 200L900 200ZM200 300L300 300L300 100L200 100ZM500 200L600 200L600 100L500 100ZM100 100L200 100L200 -100L100 -100ZM400 100L500 100L500 -100L400 -100ZM0 -100L100 -100L100 -200L0 -200ZM1100 -100L1100 -200L500 -200L500 -100Z"/></g><g transform="translate(13200, 0)"><path d="M700 900L800 900L800 800L700 800ZM200 800L300 800L300 700L200 700ZM500 800L600 800L600 700L500 700ZM800 800L900 800L900 700L800 700ZM300 700L400 700L400 600L300 600ZM600 700L700 700L700 600L600 600ZM400 600L500 600L500 500L400 500ZM500 500L600 500L600 400L500 400ZM600 400L700 400L700 300L600 300ZM700 300L800 300L800 200L700 200ZM500 200L700 200L700 100L500 100ZM300 100L500 100L500 0L300 0Z"/></g><g transform="translate(14400, 0)"><path d="M1100 500L1100 400L0 400L0 500Z"/></g><g transform="translate(15600, 0)"><path d="M500 500L600 500L600 400L500 400ZM400 400L500 400L500 300L400 300ZM700 400L800 400L800 300L700 300ZM500 800L500 1000L600 1000L600 800L1100 800L1100 700L700 700L700 600L1000 600L1000 300L900 300L900 500L600 500L600 700L400 700L400 500L300 500L300 700L0 700L0 800ZM0 300L100 300L100 200L0 200ZM500 300L600 300L600 200L500 200ZM600 200L700 200L700 100L600 100ZM800 300L900 300L900 100L800 100ZM700 100L800 100L800 0L700 0ZM600 0L700 0L700 -100L600 -100ZM800 0L900 0L900 -100L800 -100ZM200 300L100 300L100 400L200 400L200 500L300 500L300 -200L200 -200ZM400 -100L600 -100L600 -200L400 -200ZM900 -100L1100 -100L1100 -200L900 -200Z"/></g></g>
</svg>