
<svg xmlns="http://www.w3.org/2000/svg" width="25800" height="1300" viewBox="0 0 25800 1300">
  <g transform="translate(0, 1000) scale(1, -1)"><g transform="translate(0, 0)"><path d="M200 700L0 700L0 800L500 800L500 700L300 700L300 0L200 0Z"/></g><g transform="translate(600, 0)"><path d="M400 500L200 500L200 600L400 600ZM0 800L100 800L100 500L200 500L200 400L100 400L100 0L0 0ZM400 500L500 500L500 0L400 0Z"/></g><g transform="translate(1200, 0)"><path d="M100 600L400 600L400 500L100 500ZM0 500L100 500L100 400L400 400L400 500L500 500L500 300L100 300L100 100L0 100ZM400 200L500 200L500 100L400 100ZM400 100L400 0L100 0L100 100Z"/></g><g transform="translate(1800, 0)"><path d=""/></g><g transform="translate(2400, 0)"><path d="M100 600L300 600L300 500L100 500ZM0 500L100 500L100 100L0 100ZM300 0L100 0L100 100L300 100ZM500 -200L400 -200L400 100L300 100L300 200L400 200L400 400L300 400L300 500L400 500L400 600L500 600Z"/></g><g transform="translate(3000, 0)"><path d="M0 600L100 600L100 100L0 100ZM300 0L100 0L100 100L300 100ZM500 0L400 0L400 100L300 100L300 200L400 200L400 600L500 600Z"/></g><g transform="translate(3600, 0)"><path d="M200 800L300 800L300 700L200 700ZM100 100L200 100L200 500L100 500L100 600L300 600L300 100L400 100L400 0L100 0Z"/></g><g transform="translate(4200, 0)"><path d="M100 600L400 600L400 500L100 500ZM400 500L500 500L500 400L400 400ZM0 500L100 500L100 100L0 100ZM400 200L500 200L500 100L400 100ZM400 100L400 0L100 0L100 100Z"/></g><g transform="translate(4800, 0)"><path d="M400 600L500 600L500 500L400 500ZM300 500L400 500L400 400L300 400ZM300 200L400 200L400 100L300 100ZM0 800L100 800L100 400L300 400L300 200L200 200L200 300L100 300L100 0L0 0ZM400 100L500 100L500 0L400 0Z"/></g><g transform="translate(5400, 0)"><path d=""/></g><g transform="translate(6000, 0)"><path d="M400 500L200 500L200 600L400 600ZM400 500L500 500L500 100L400 100ZM0 800L100 800L100 500L200 500L200 400L100 400L100 200L200 200L200 100L100 100L100 0L0 0ZM400 0L200 0L200 100L400 100Z"/></g><g transform="translate(6600, 0)"><path d="M200 600L400 600L400 500L200 500ZM400 500L500 500L500 400L400 400ZM0 600L100 600L100 500L200 500L200 400L100 400L100 0L0 0Z"/></g><g transform="translate(7200, 0)"><path d="M100 600L400 600L400 500L100 500ZM0 500L100 500L100 100L0 100ZM400 500L500 500L500 100L400 100ZM400 100L400 0L100 0L100 100Z"/></g><g transform="translate(7800, 0)"><path d="M0 600L100 600L100 200L0 200ZM200 400L300 400L300 200L200 200ZM400 600L500 600L500 200L400 200ZM100 200L200 200L200 0L100 0ZM300 200L400 200L400 0L300 0Z"/></g><g transform="translate(8400, 0)"><path d="M200 600L400 600L400 500L200 500ZM0 600L100 600L100 500L200 500L200 400L100 400L100 0L0 0ZM400 500L500 500L500 0L400 0Z"/></g><g transform="translate(9000, 0)"><path d=""/></g><g transform="translate(9600, 0)"><path d="M500 700L300 700L300 800L500 800ZM200 400L0 400L0 500L200 500L200 700L300 700L300 500L500 500L500 400L300 400L300 0L200 0Z"/></g><g transform="translate(10200, 0)"><path d="M100 600L400 600L400 500L100 500ZM0 500L100 500L100 100L0 100ZM400 500L500 500L500 100L400 100ZM400 100L400 0L100 0L100 100Z"/></g><g transform="translate(10800, 0)"><path d="M0 600L100 600L100 500L0 500ZM400 600L500 600L500 500L400 500ZM100 500L200 500L200 400L100 400ZM300 500L400 500L400 400L300 400ZM200 400L300 400L300 200L200 200ZM100 200L200 200L200 100L100 100ZM300 200L400 200L400 100L300 100ZM0 100L100 100L100 0L0 0ZM400 100L500 100L500 0L400 0Z"/></g><g transform="translate(11400, 0)"><path d=""/></g><g transform="translate(12000, 0)"><path d="M300 800L400 800L400 700L300 700ZM0 0L100 0L100 -100L0 -100ZM300 500L200 500L200 600L400 600L400 -100L300 -100ZM300 -200L100 -200L100 -100L300 -100Z"/></g><g transform="translate(12600, 0)"><path d="M0 600L100 600L100 100L0 100ZM300 0L100 0L100 100L300 100ZM500 0L400 0L400 100L300 100L300 200L400 200L400 600L500 600Z"/></g><g transform="translate(13200, 0)"><path d="M300 600L400 600L400 500L300 500ZM0 600L200 600L200 500L100 500L100 0L0 0ZM200 500L300 500L300 0L200 0ZM400 500L500 500L500 0L400 0Z"/></g><g transform="translate(13800, 0)"><path d="M200 600L400 600L400 500L200 500ZM400 500L500 500L500 100L400 100ZM200 100L400 100L400 0L200 0ZM0 600L100 600L100 500L200 500L200 400L100 400L100 200L200 200L200 100L100 100L100 -200L0 -200Z"/></g><g transform="translate(14400, 0)"><path d="M100 600L400 600L400 500L100 500ZM0 500L100 500L100 400L0 400ZM400 500L500 500L500 400L400 400ZM100 400L300 400L300 300L100 300ZM300 300L400 300L400 200L300 200ZM0 200L100 200L100 100L0 100ZM400 200L500 200L500 100L400 100ZM400 100L400 0L100 0L100 100Z"/></g><g transform="translate(15000, 0)"><path d=""/></g><g transform="translate(15600, 0)"><path d="M100 600L400 600L400 500L100 500ZM0 500L100 500L100 100L0 100ZM400 500L500 500L500 100L400 100ZM400 100L400 0L100 0L100 100Z"/></g><g transform="translate(16200, 0)"><path d="M0 600L100 600L100 300L0 300ZM400 600L500 600L500 300L400 300ZM100 300L200 300L200 100L100 100ZM300 300L400 300L400 100L300 100ZM200 100L300 100L300 0L200 0Z"/></g><g transform="translate(16800, 0)"><path d="M100 600L400 600L400 500L100 500ZM0 500L100 500L100 400L400 400L400 500L500 500L500 300L100 300L100 100L0 100ZM400 200L500 200L500 100L400 100ZM400 100L400 0L100 0L100 100Z"/></g><g transform="translate(17400, 0)"><path d="M200 600L400 600L400 500L200 500ZM400 500L500 500L500 400L400 400ZM0 600L100 600L100 500L200 500L200 400L100 400L100 0L0 0Z"/></g><g transform="translate(18000, 0)"><path d=""/></g><g transform="translate(18600, 0)"><path d="M100 500L0 500L0 600L100 600L100 800L200 800L200 600L400 600L400 500L200 500L200 100L100 100ZM400 200L500 200L500 100L400 100ZM400 0L200 0L200 100L400 100Z"/></g><g transform="translate(19200, 0)"><path d="M400 500L200 500L200 600L400 600ZM0 800L100 800L100 500L200 500L200 400L100 400L100 0L0 0ZM400 500L500 500L500 0L400 0Z"/></g><g transform="translate(19800, 0)"><path d="M100 600L400 600L400 500L100 500ZM0 500L100 500L100 400L400 400L400 500L500 500L500 300L100 300L100 100L0 100ZM400 200L500 200L500 100L400 100ZM400 100L400 0L100 0L100 100Z"/></g><g transform="translate(20400, 0)"><path d=""/></g><g transform="translate(21000, 0)"><path d="M100 100L200 100L200 700L100 700L100 800L300 800L300 100L400 100L400 0L100 0Z"/></g><g transform="translate(21600, 0)"><path d="M100 600L300 600L300 500L100 500ZM0 500L100 500L100 100L0 100ZM300 0L100 0L100 100L300 100ZM500 0L400 0L400 100L300 100L300 200L400 200L400 400L300 400L300 500L400 500L400 600L500 600Z"/></g><g transform="translate(22200, 0)"><path d="M500 600L500 500L400 500L400 400L300 400L300 500L0 500L0 600ZM200 400L300 400L300 300L200 300ZM100 300L200 300L200 200L100 200ZM500 0L0 0L0 200L100 200L100 100L500 100Z"/></g><g transform="translate(22800, 0)"><path d="M0 600L100 600L100 200L0 200ZM300 100L100 100L100 200L300 200ZM0 0L100 0L100 -100L0 -100ZM400 200L300 200L300 300L400 300L400 600L500 600L500 -100L400 -100ZM400 -200L100 -200L100 -100L400 -100Z"/></g><g transform="translate(23400, 0)"><path d=""/></g><g transform="translate(24000, 0)"><path d="M100 600L300 600L300 500L100 500ZM0 500L100 500L100 100L0 100ZM100 100L300 100L300 0L100 0ZM400 400L300 400L300 500L400 500L400 800L500 800L500 0L400 0L400 100L300 100L300 200L400 200Z"/></g><g transform="translate(24600, 0)"><path d="M100 600L400 600L400 500L100 500ZM0 500L100 500L100 100L0 100ZM400 500L500 500L500 100L400 100ZM400 100L400 0L100 0L100 100Z"/></g><g transform="translate(25200, 0)"><path d="M100 600L300 600L300 500L100 500ZM0 500L100 500L100 200L0 200ZM300 100L100 100L100 200L300 200ZM0 0L100 0L100 -100L0 -100ZM400 200L300 200L300 300L400 300L400 400L300 400L300 500L400 500L400 600L500 600L500 -100L400 -100ZM400 -200L100 -200L100 -100L400 -100Z"/></g></g>
</svg>